<svg width="30" height="30" viewBox="0 0 24 24" xmlns="https://www.w3.org/2000/svg"><path d="M12 21.919a1.454 1.454 0 01-.791-.232l-1.564-1.021a.47.47 0 00-.439-.028l-1.776.829a1.466 1.466 0 01-1.4-.087 1.214 1.214 0 01-.581-1.02V3.641a1.217 1.217 0 01.584-1.021 1.469 1.469 0 011.4-.087l1.775.829a.469.469 0 00.439-.026l1.563-1.023a1.464 1.464 0 011.581 0l1.564 1.022a.469.469 0 00.44.026l1.775-.829a1.461 1.461 0 011.4.087 1.217 1.217 0 01.581 1.021v16.72a1.216 1.216 0 01-.581 1.02 1.46 1.46 0 01-1.4.087l-1.77-.828a.474.474 0 00-.441.027l-1.564 1.021a1.448 1.448 0 01-.795.232zM9.4 19.6a1.44 1.44 0 01.79.234l1.564 1.02a.464.464 0 00.487 0l1.565-1.021a1.462 1.462 0 011.41-.095l1.774.828a.463.463 0 00.437-.024.221.221 0 00.118-.177V3.641a.219.219 0 00-.118-.177.461.461 0 00-.437-.025l-1.775.829a1.458 1.458 0 01-1.409-.095l-1.563-1.022a.467.467 0 00-.486 0l-1.565 1.021a1.467 1.467 0 01-1.41.1l-1.775-.833a.461.461 0 00-.437.025.219.219 0 00-.118.177V20.36a.221.221 0 00.118.177.468.468 0 00.437.024l1.776-.829A1.461 1.461 0 019.4 19.6z"/><path d="M15.046 7.4H8.954a.5.5 0 010-1h6.092a.5.5 0 010 1zM15.046 10.953H8.954a.5.5 0 010-1h6.092a.5.5 0 010 1zM12 14.5H8.954a.5.5 0 010-1H12a.5.5 0 010 1z"/></svg>